<svg style="position:fixed; top:0; left:0; height:50%; width:50%;" viewBox="0.00 0.00 315.34 206.06" xmlns="http://www.w3.org/2000/svg" xmlns:xlink="http://www.w3.org/1999/xlink"><g id="graph0" class="graph" transform="scale(1 1) rotate(0) translate(4 202.0577)"><title>elem65925</title><polygon fill="#ffffff" stroke="transparent" points="-4,4 -4,-202.0577 311.3445,-202.0577 311.3445,4 -4,4"/><!-- 1&#45;&#45;2 --><g id="edge1" class="edge"><title>1&#45;&#45;2</title><path fill="none" stroke="#000000" d="M204.2446,-130.6035C189.0376,-131.0377 170.1463,-131.5771 154.9688,-132.0104"/></g><!-- 1&#45;&#45;6 --><g id="edge2" class="edge"><title>1&#45;&#45;6</title><path fill="none" stroke="#000000" d="M211.8915,-117.381C193.4399,-105.6255 165.9035,-88.0821 147.3653,-76.2714"/></g><!-- 1&#45;&#45;3 --><g id="edge3" class="edge"><title>1&#45;&#45;3</title><path fill="none" stroke="#000000" d="M247.1744,-114.9683C252.7603,-109.6972 259.0436,-103.7682 264.6271,-98.4995"/></g><!-- 6&#45;&#45;2 --><g id="edge8" class="edge"><title>6&#45;&#45;2</title><path fill="none" stroke="#000000" d="M127.6699,-81.8178C127.7287,-91.8982 127.8017,-104.4015 127.8607,-114.5008"/></g><!-- 6&#45;&#45;5 --><g id="edge7" class="edge"><title>6&#45;&#45;5</title><path fill="none" stroke="#000000" d="M144.4702,-49.4604C150.9546,-44.0157 158.3542,-37.8026 164.8551,-32.344"/></g><!-- 3&#45;&#45;8 --><g id="edge14" class="edge"><title>3&#45;&#45;8</title><path fill="none" stroke="#000000" d="M271.5372,-66.3287C267.3095,-58.0052 262.2589,-48.0617 258.0423,-39.7602"/></g><!-- 10&#45;&#45;7 --><g id="edge4" class="edge"><title>10&#45;&#45;7</title><path fill="none" stroke="#000000" d="M33.8458,-56.6098C38.0744,-67.4119 43.4852,-81.2337 47.7348,-92.0892"/></g><!-- 7&#45;&#45;2 --><g id="edge9" class="edge"><title>7&#45;&#45;2</title><path fill="none" stroke="#000000" d="M79.5012,-117.6247C87.1405,-120.0137 95.5484,-122.6431 103.186,-125.0315"/></g><!-- 9&#45;&#45;2 --><g id="edge5" class="edge"><title>9&#45;&#45;2</title><path fill="none" stroke="#000000" d="M159.6915,-164.839C154.3491,-159.4404 148.3397,-153.3678 142.9997,-147.9716"/></g><!-- 9&#45;&#45;4 --><g id="edge6" class="edge"><title>9&#45;&#45;4</title><path fill="none" stroke="#000000" d="M177.618,-161.8883C180.2502,-145.2015 184.13,-120.6058 186.7595,-103.9366"/></g><!-- 4&#45;&#45;3 --><g id="edge11" class="edge"><title>4&#45;&#45;3</title><path fill="none" stroke="#000000" d="M216.8381,-85.1765C228.3212,-84.9038 241.6613,-84.587 253.1424,-84.3143"/></g><!-- 4&#45;&#45;5 --><g id="edge12" class="edge"><title>4&#45;&#45;5</title><path fill="none" stroke="#000000" d="M187.5591,-67.6477C186.4574,-57.9166 185.1042,-45.9642 184.0016,-36.2255"/></g><!-- 4&#45;&#45;8 --><g id="edge10" class="edge"><title>4&#45;&#45;8</title><path fill="none" stroke="#000000" d="M204.0693,-70.5157C213.3182,-60.7199 225.2828,-48.0477 234.5861,-38.1943"/></g><!-- 5&#45;&#45;8 --><g id="edge13" class="edge"><title>5&#45;&#45;8</title><path fill="none" stroke="#000000" d="M208.9569,-19.8399C213.3505,-20.1392 217.9019,-20.4491 222.2957,-20.7483"/></g><!-- 1 --><g id="node1" class="node"><title>1</title><ellipse fill="#00ff00" fill-opacity="0.686275" stroke="#000000" cx="231.4275" cy="-129.8274" rx="27" ry="18"/><text text-anchor="middle" x="231.4275" y="-126.2274" font-family="Times,serif" font-size="12.00" fill="#000000">1</text></g><!-- 2 --><g id="node2" class="node"><title>2</title><ellipse fill="#00ff00" fill-opacity="0.686275" stroke="#000000" cx="127.9675" cy="-132.7814" rx="27" ry="18"/><text text-anchor="middle" x="127.9675" y="-129.1814" font-family="Times,serif" font-size="12.00" fill="#000000">2</text></g><!-- 6 --><g id="node3" class="node"><title>6</title><ellipse fill="#00ff00" fill-opacity="0.686275" stroke="#000000" cx="127.5638" cy="-63.6559" rx="27" ry="18"/><text text-anchor="middle" x="127.5638" y="-60.0559" font-family="Times,serif" font-size="12.00" fill="#000000">6</text></g><!-- 3 --><g id="node4" class="node"><title>3</title><ellipse fill="#00ff00" fill-opacity="0.686275" stroke="#000000" cx="280.3445" cy="-83.6683" rx="27" ry="18"/><text text-anchor="middle" x="280.3445" y="-80.0683" font-family="Times,serif" font-size="12.00" fill="#000000">3</text></g><!-- 10 --><g id="node5" class="node"><title>10</title><ellipse fill="#00ff00" fill-opacity="0.686275" stroke="#000000" cx="27" cy="-39.1225" rx="27" ry="18"/><text text-anchor="middle" x="27" y="-35.5225" font-family="Times,serif" font-size="12.00" fill="#000000">10</text></g><!-- 7 --><g id="node6" class="node"><title>7</title><ellipse fill="#00ff00" fill-opacity="0.686275" stroke="#000000" cx="54.6942" cy="-109.8668" rx="27" ry="18"/><text text-anchor="middle" x="54.6942" y="-106.2668" font-family="Times,serif" font-size="12.00" fill="#000000">7</text></g><!-- 9 --><g id="node7" class="node"><title>9</title><ellipse fill="#00ff00" fill-opacity="0.686275" stroke="#000000" cx="174.7519" cy="-180.0577" rx="27" ry="18"/><text text-anchor="middle" x="174.7519" y="-176.4577" font-family="Times,serif" font-size="12.00" fill="#000000">9</text></g><!-- 4 --><g id="node8" class="node"><title>4</title><ellipse fill="#00ff00" fill-opacity="0.686275" stroke="#000000" cx="189.6168" cy="-85.823" rx="27" ry="18"/><text text-anchor="middle" x="189.6168" y="-82.223" font-family="Times,serif" font-size="12.00" fill="#000000">4</text></g><!-- 5 --><g id="node9" class="node"><title>5</title><ellipse fill="#00ff00" fill-opacity="0.686275" stroke="#000000" cx="181.9383" cy="-18" rx="27" ry="18"/><text text-anchor="middle" x="181.9383" y="-14.4" font-family="Times,serif" font-size="12.00" fill="#000000">5</text></g><!-- 8 --><g id="node10" class="node"><title>8</title><ellipse fill="#00ff00" fill-opacity="0.686275" stroke="#000000" cx="249.3203" cy="-22.5887" rx="27" ry="18"/><text text-anchor="middle" x="249.3203" y="-18.9887" font-family="Times,serif" font-size="12.00" fill="#000000">8</text></g></g></svg>